<svg width="25" height="24" viewBox="0 0 25 24" fill="none" xmlns="http://www.w3.org/2000/svg">
<g clip-path="url(#clip0_719_29633)">
<g clip-path="url(#clip1_719_29633)">
<path d="M21.8734 16.68C21.3559 17.8294 21.1065 18.3431 20.4409 19.3575C19.509 20.775 18.1946 22.545 16.5709 22.5563C15.1253 22.5694 14.7521 21.6131 12.789 21.63C10.8278 21.6394 10.419 22.575 8.97152 22.56C7.34589 22.545 6.10277 20.9513 5.17089 19.5356C2.56464 15.5663 2.28901 10.9125 3.89964 8.43751C5.03964 6.68251 6.84152 5.65126 8.53464 5.65126C10.2596 5.65126 11.3434 6.59814 12.7684 6.59814C14.1521 6.59814 14.994 5.64939 16.989 5.64939C18.4965 5.64939 20.0903 6.47064 21.2303 7.88814C17.5028 9.93189 18.1084 15.255 21.8734 16.68ZM15.474 4.06501C16.1996 3.13313 16.7509 1.81876 16.5503 0.480011C15.3671 0.560637 13.9834 1.31626 13.1753 2.29501C12.4421 3.18751 11.8346 4.51126 12.0709 5.79189C13.3628 5.83314 14.6996 5.06251 15.474 4.06501Z" fill="white"/>
</g>
</g>
<defs>
<clipPath id="clip0_719_29633">
<rect width="24" height="24" fill="white" transform="translate(0.5)"/>
</clipPath>
<clipPath id="clip1_719_29633">
<rect width="24" height="24" fill="white" transform="translate(0.5)"/>
</clipPath>
</defs>
</svg>
