<svg width="26" height="26" viewBox="0 0 26 26" fill="none" xmlns="http://www.w3.org/2000/svg">
<mask id="path-1-inside-1_2038_22087" fill="white">
<path d="M16.9973 14.4325C16.8848 14.3449 16.8046 14.216 16.785 14.0581L16.0585 8.22713L10.2275 8.95358C9.9223 8.99161 9.63822 8.77048 9.60019 8.46524C9.56217 8.16001 9.7833 7.87594 10.0885 7.83791L16.4774 7.04196C16.7826 7.00393 17.0667 7.22507 17.1047 7.5303L17.9006 13.9191C17.9387 14.2243 17.7175 14.5084 17.4123 14.5464C17.2603 14.5707 17.1097 14.52 16.9973 14.4325Z"/>
</mask>
<path d="M16.9973 14.4325C16.8848 14.3449 16.8046 14.216 16.785 14.0581L16.0585 8.22713L10.2275 8.95358C9.9223 8.99161 9.63822 8.77048 9.60019 8.46524C9.56217 8.16001 9.7833 7.87594 10.0885 7.83791L16.4774 7.04196C16.7826 7.00393 17.0667 7.22507 17.1047 7.5303L17.9006 13.9191C17.9387 14.2243 17.7175 14.5084 17.4123 14.5464C17.2603 14.5707 17.1097 14.52 16.9973 14.4325Z" fill="#1A1E42"/>
<path d="M16.785 14.0581L18.2026 13.8815L18.2026 13.8815L16.785 14.0581ZM16.0585 8.22713L17.4761 8.05052L17.2995 6.63291L15.8819 6.80952L16.0585 8.22713ZM10.2275 8.95358L10.4041 10.3712L10.2275 8.95358ZM10.0885 7.83791L9.91192 6.4203L9.91192 6.4203L10.0885 7.83791ZM16.4774 7.04196L16.654 8.45957L16.654 8.45957L16.4774 7.04196ZM17.1047 7.5303L15.6871 7.70691L15.6871 7.70691L17.1047 7.5303ZM17.9006 13.9191L19.3183 13.7425L19.3183 13.7425L17.9006 13.9191ZM17.4123 14.5464L17.2357 13.1288L17.2113 13.1319L17.1869 13.1358L17.4123 14.5464ZM16.9973 14.4325L17.8748 13.3052C18.0452 13.4378 18.1729 13.6436 18.2026 13.8815L16.785 14.0581L15.3674 14.2347C15.4363 14.7884 15.7245 15.2521 16.1198 15.5598L16.9973 14.4325ZM16.785 14.0581L18.2026 13.8815L17.4761 8.05052L16.0585 8.22713L14.6409 8.40374L15.3674 14.2347L16.785 14.0581ZM16.0585 8.22713L15.8819 6.80952L10.0509 7.53597L10.2275 8.95358L10.4041 10.3712L16.2351 9.64474L16.0585 8.22713ZM10.2275 8.95358L10.0509 7.53597C10.5286 7.47646 10.9583 7.81094 11.0178 8.28863L9.60019 8.46524L8.18258 8.64186C8.31815 9.73002 9.31599 10.5068 10.4041 10.3712L10.2275 8.95358ZM9.60019 8.46524L11.0178 8.28863C11.0773 8.76633 10.7428 9.19601 10.2651 9.25552L10.0885 7.83791L9.91192 6.4203C8.82376 6.55587 8.04701 7.5537 8.18258 8.64186L9.60019 8.46524ZM10.0885 7.83791L10.2651 9.25552L16.654 8.45957L16.4774 7.04196L16.3007 5.62435L9.91192 6.4203L10.0885 7.83791ZM16.4774 7.04196L16.654 8.45957C16.1763 8.51908 15.7466 8.1846 15.6871 7.70691L17.1047 7.5303L18.5223 7.35368C18.3867 6.26553 17.3889 5.48878 16.3007 5.62435L16.4774 7.04196ZM17.1047 7.5303L15.6871 7.70691L16.483 14.0957L17.9006 13.9191L19.3183 13.7425L18.5223 7.35368L17.1047 7.5303ZM17.9006 13.9191L16.483 14.0957C16.4235 13.618 16.758 13.1884 17.2357 13.1288L17.4123 14.5464L17.5889 15.9641C18.6771 15.8285 19.4538 14.8307 19.3183 13.7425L17.9006 13.9191ZM17.4123 14.5464L17.1869 13.1358C17.4888 13.0875 17.7288 13.1915 17.8748 13.3052L16.9973 14.4325L16.1198 15.5598C16.4907 15.8485 17.0319 16.0539 17.6377 15.9571L17.4123 14.5464Z" fill="#1A1E42" mask="url(#path-1-inside-1_2038_22087)"/>
<mask id="path-3-inside-2_2038_22087" fill="white">
<path d="M8.36843 18.1048C8.12578 17.9159 8.0812 17.5581 8.27008 17.3154L16.0236 7.355C16.2125 7.11235 16.5704 7.06777 16.813 7.25666C17.0557 7.44554 17.1002 7.8034 16.9114 8.04605L9.15782 18.0065C8.96894 18.2491 8.61108 18.2937 8.36843 18.1048Z"/>
</mask>
<path d="M8.36843 18.1048C8.12578 17.9159 8.0812 17.5581 8.27008 17.3154L16.0236 7.355C16.2125 7.11235 16.5704 7.06777 16.813 7.25666C17.0557 7.44554 17.1002 7.8034 16.9114 8.04605L9.15782 18.0065C8.96894 18.2491 8.61108 18.2937 8.36843 18.1048Z" fill="#1A1E42"/>
<path d="M8.36843 18.1048L9.24595 16.9775C9.62588 17.2733 9.69313 17.813 9.39737 18.193L8.27008 17.3154L7.1428 16.4379C6.46927 17.3031 6.62568 18.5586 7.49091 19.2321L8.36843 18.1048ZM8.27008 17.3154L9.39737 18.193L17.1509 8.23252L16.0236 7.355L14.8963 6.47748L7.1428 16.4379L8.27008 17.3154ZM16.0236 7.355L17.1509 8.23252C16.8552 8.61246 16.3154 8.6797 15.9355 8.38394L16.813 7.25666L17.6905 6.12937C16.8253 5.45584 15.5699 5.61225 14.8963 6.47748L16.0236 7.355ZM16.813 7.25666L15.9355 8.38394C15.5556 8.08819 15.4883 7.54847 15.7841 7.16853L16.9114 8.04605L18.0386 8.92357C18.7122 8.05833 18.5558 6.80289 17.6905 6.12937L16.813 7.25666ZM16.9114 8.04605L15.7841 7.16853L8.03054 17.129L9.15782 18.0065L10.2851 18.884L18.0386 8.92357L16.9114 8.04605ZM9.15782 18.0065L8.03054 17.129C8.32629 16.749 8.86601 16.6818 9.24595 16.9775L8.36843 18.1048L7.49091 19.2321C8.35614 19.9056 9.61158 19.7492 10.2851 18.884L9.15782 18.0065Z" fill="#1A1E42" mask="url(#path-3-inside-2_2038_22087)"/>
</svg>
