<svg width="21" height="21" viewBox="0 0 21 21" fill="none" xmlns="http://www.w3.org/2000/svg">
<path d="M14.2793 16.8608C14.8085 16.8608 15.2381 17.2897 15.2383 17.8188C15.2383 18.3481 14.8086 18.7778 14.2793 18.7778C13.7502 18.7777 13.3213 18.348 13.3213 17.8188C13.3215 17.2898 13.7503 16.861 14.2793 16.8608Z" fill="white" stroke="white"/>
<path d="M7.61361 19.2775C8.41902 19.2775 9.07194 18.6246 9.07194 17.8192C9.07194 17.0138 8.41902 16.3608 7.61361 16.3608C6.80819 16.3608 6.15527 17.0138 6.15527 17.8192C6.15527 18.6246 6.80819 19.2775 7.61361 19.2775Z" fill="white"/>
<path opacity="0.4" d="M4.77194 3.811L4.60527 5.85267C4.57194 6.24434 4.88028 6.56934 5.27194 6.56934H18.0303C18.3803 6.56934 18.6719 6.30266 18.6969 5.95266C18.8053 4.47766 17.6803 3.27767 16.2053 3.27767H5.98027C5.89693 2.91101 5.73027 2.561 5.47193 2.26933C5.0636 1.82767 4.48028 1.56934 3.88028 1.56934H2.40527C2.06361 1.56934 1.78027 1.85267 1.78027 2.19434C1.78027 2.536 2.06361 2.81934 2.40527 2.81934H3.85528C4.11361 2.81934 4.35528 2.92767 4.53028 3.11101C4.70528 3.30267 4.7886 3.55267 4.77194 3.811Z" fill="white"/>
<path d="M17.8297 7.81934H5.04634C4.69634 7.81934 4.413 8.086 4.37967 8.42767L4.07967 12.0527C3.963 13.4693 5.07967 14.6943 6.50467 14.6943H15.7713C17.0213 14.6943 18.1213 13.6693 18.213 12.4193L18.488 8.52767C18.5213 8.14434 18.2213 7.81934 17.8297 7.81934Z" fill="white"/>
</svg>
