<svg width="22" height="22" viewBox="0 0 22 22" fill="none" xmlns="http://www.w3.org/2000/svg">
<path d="M10.7497 2.27801C13.5715 2.27801 13.9563 2.27801 15.1107 2.27801C16.1369 2.27801 16.6499 2.53454 17.0347 2.66281C17.5478 2.91934 17.9326 3.04761 18.3174 3.43241C18.7022 3.81721 18.9587 4.20201 19.087 4.71508C19.2153 5.09988 19.3435 5.61295 19.4718 6.63908C19.4718 7.79349 19.4718 8.05002 19.4718 11.0002C19.4718 13.9503 19.4718 14.2068 19.4718 15.3612C19.4718 16.3874 19.2153 16.9004 19.087 17.2852C18.8305 17.7983 18.7022 18.1831 18.3174 18.5679C17.9326 18.9527 17.5478 19.2092 17.0347 19.3375C16.6499 19.4658 16.1369 19.594 15.1107 19.7223C13.9563 19.7223 13.6998 19.7223 10.7497 19.7223C7.79953 19.7223 7.543 19.7223 6.38859 19.7223C5.36246 19.7223 4.84939 19.4658 4.46459 19.3375C3.95152 19.081 3.56672 18.9527 3.18192 18.5679C2.79712 18.1831 2.54059 17.7983 2.41232 17.2852C2.28405 16.9004 2.15579 16.3874 2.02752 15.3612C2.02752 14.2068 2.02752 13.9503 2.02752 11.0002C2.02752 8.05002 2.02752 7.79349 2.02752 6.63908C2.02752 5.61295 2.28405 5.09988 2.41232 4.71508C2.66885 4.20201 2.79712 3.81721 3.18192 3.43241C3.56672 3.04761 3.95152 2.79108 4.46459 2.66281C4.84939 2.53454 5.36246 2.40627 6.38859 2.27801C7.543 2.27801 7.9278 2.27801 10.7497 2.27801ZM10.7497 0.354004C7.79953 0.354004 7.543 0.354004 6.38859 0.354004C5.23419 0.354004 4.46459 0.610538 3.82326 0.867072C3.18192 1.12361 2.54059 1.50841 1.89925 2.14974C1.25792 2.79108 1.00138 3.30414 0.616584 4.07375C0.36005 4.71508 0.231783 5.48468 0.103516 6.63908C0.103516 7.79349 0.103516 8.17829 0.103516 11.0002C0.103516 13.9503 0.103516 14.2068 0.103516 15.3612C0.103516 16.5156 0.36005 17.2852 0.616584 17.9266C0.873118 18.5679 1.25792 19.2092 1.89925 19.8506C2.54059 20.4919 3.05366 20.7484 3.82326 21.1332C4.46459 21.3898 5.23419 21.518 6.38859 21.6463C7.543 21.6463 7.9278 21.6463 10.7497 21.6463C13.5715 21.6463 13.9563 21.6463 15.1107 21.6463C16.2651 21.6463 17.0347 21.3898 17.6761 21.1332C18.3174 20.8767 18.9587 20.4919 19.6001 19.8506C20.2414 19.2092 20.498 18.6962 20.8828 17.9266C21.1393 17.2852 21.2676 16.5156 21.3958 15.3612C21.3958 14.2068 21.3958 13.822 21.3958 11.0002C21.3958 8.17829 21.3958 7.79349 21.3958 6.63908C21.3958 5.48468 21.1393 4.71508 20.8828 4.07375C20.6262 3.43241 20.2414 2.79108 19.6001 2.14974C18.9587 1.50841 18.4457 1.25187 17.6761 0.867072C17.0347 0.610538 16.2651 0.482271 15.1107 0.354004C13.9563 0.354004 13.6998 0.354004 10.7497 0.354004Z" fill="white"/>
<path d="M10.7497 5.48468C7.67126 5.48468 5.23419 7.92175 5.23419 11.0002C5.23419 14.0786 7.67126 16.5156 10.7497 16.5156C13.8281 16.5156 16.2651 14.0786 16.2651 11.0002C16.2651 7.92175 13.8281 5.48468 10.7497 5.48468ZM10.7497 14.5916C8.82567 14.5916 7.1582 13.0524 7.1582 11.0002C7.1582 9.07615 8.6974 7.40868 10.7497 7.40868C12.6737 7.40868 14.3411 8.94789 14.3411 11.0002C14.3411 12.9242 12.6737 14.5916 10.7497 14.5916Z" fill="white"/>
<path d="M16.3934 6.63908C17.1018 6.63908 17.6761 6.06481 17.6761 5.35641C17.6761 4.64802 17.1018 4.07375 16.3934 4.07375C15.685 4.07375 15.1107 4.64802 15.1107 5.35641C15.1107 6.06481 15.685 6.63908 16.3934 6.63908Z" fill="white"/>
</svg>
