<svg width="21" height="22" viewBox="0 0 21 22" fill="none" xmlns="http://www.w3.org/2000/svg">
<path d="M4.83344 21.2615H0.47235V7.53692H4.83344V21.2615ZM2.65289 5.61291C1.24196 5.61291 0.21582 4.58678 0.21582 3.17584C0.21582 1.7649 1.37022 0.73877 2.65289 0.73877C4.06383 0.73877 5.08997 1.7649 5.08997 3.17584C5.08997 4.58678 4.06383 5.61291 2.65289 5.61291ZM20.7385 21.2615H16.3775V13.822C16.3775 11.6415 15.4796 11.0001 14.1969 11.0001C12.9142 11.0001 11.6316 12.0263 11.6316 13.9503V21.2615H7.2705V7.53692H11.375V9.46092C11.7598 8.56305 13.299 7.15211 15.4796 7.15211C17.9166 7.15211 20.482 8.56305 20.482 12.7959V21.2615H20.7385Z" fill="white"/>
</svg>
