<svg width="36" height="36" viewBox="0 0 36 36" fill="none" xmlns="http://www.w3.org/2000/svg">
<path d="M29.4287 3.35669C31.2038 3.35676 32.6426 4.79638 32.6426 6.57153C32.6425 8.34662 31.2038 9.78533 29.4287 9.7854C27.6536 9.7854 26.2139 8.34667 26.2139 6.57153C26.2139 4.79633 27.6535 3.35669 29.4287 3.35669Z" fill="#1A1E42" stroke="#1A1E42" stroke-width="1.42857"/>
<path opacity="0.4" d="M10.8564 4.4281H23.3867C23.1403 5.09573 23 5.81584 23 6.57166C23.0002 10.123 25.8764 13.0001 29.4277 13.0004C30.1835 13.0004 30.9037 12.859 31.5713 12.6127V20.8002C31.5712 24.3313 28.6936 27.1995 25.1426 27.1996H23C22.3306 27.1996 21.6925 27.5211 21.2881 28.0531L21.2861 28.056L19.1436 30.8988L19.1426 30.8998C18.7864 31.3747 18.3654 31.5569 18 31.557C17.6345 31.557 17.2128 31.3749 16.8564 30.8998L16.8555 30.8988L14.7129 28.056L14.708 28.0492L14.6279 27.9525C14.433 27.7346 14.1849 27.563 13.9443 27.4427C13.6708 27.306 13.3351 27.1997 13 27.1996H10.8564C7.30548 27.1994 4.42786 24.3313 4.42773 20.8002V10.8285C4.42775 7.29731 7.30542 4.42825 10.8564 4.4281Z" fill="#1A1E42" stroke="#1A1E42" stroke-width="1.42857"/>
<path d="M17.9999 18C17.1999 18 16.5713 17.3571 16.5713 16.5714C16.5713 15.7857 17.2141 15.1428 17.9999 15.1428C18.7856 15.1428 19.4284 15.7857 19.4284 16.5714C19.4284 17.3571 18.7999 18 17.9999 18Z" fill="#292D32"/>
<path d="M23.7147 18C22.9147 18 22.2861 17.3571 22.2861 16.5714C22.2861 15.7857 22.929 15.1428 23.7147 15.1428C24.5004 15.1428 25.1433 15.7857 25.1433 16.5714C25.1433 17.3571 24.5147 18 23.7147 18Z" fill="#292D32"/>
<path d="M12.286 18C11.486 18 10.8574 17.3571 10.8574 16.5714C10.8574 15.7857 11.5003 15.1428 12.286 15.1428C13.0717 15.1428 13.7146 15.7857 13.7146 16.5714C13.7146 17.3571 13.086 18 12.286 18Z" fill="#292D32"/>
</svg>
