<svg width="36" height="36" viewBox="0 0 36 36" fill="none" xmlns="http://www.w3.org/2000/svg">
<path opacity="0.4" d="M9.58594 6.59961H22.1426C23.6488 6.59961 24.8675 6.91978 25.7637 7.53906C26.5894 8.10962 27.1998 8.97459 27.5 10.2266L27.5566 10.4814C27.6505 11.0208 27.7139 11.5596 27.7139 12.1719V19.5283C27.7139 21.5921 27.128 22.9489 26.2139 23.7979C25.29 24.6557 23.9188 25.0996 22.1426 25.0996H9.58594C8.98421 25.0996 8.42365 25.0463 7.91406 24.9316L7.8916 24.9268L7.87012 24.9229L7.64551 24.8809C7.42141 24.8316 7.19999 24.7632 6.98633 24.6855H6.98535C6.05026 24.335 5.325 23.767 4.8252 22.957C4.31933 22.1372 4.01367 21.0189 4.01367 19.5283V12.1719C4.01367 10.108 4.60044 8.75127 5.51465 7.90234C6.43847 7.04452 7.80971 6.59961 9.58594 6.59961Z" fill="#1A1E42" stroke="#1A1E42" stroke-width="1.42857"/>
<path d="M32.714 16.4571V23.8143C32.714 28.2143 30.1997 30.1 26.4283 30.1H13.8711C12.814 30.1 11.8568 29.9572 11.0283 29.6429C9.32828 29.0143 8.17112 27.7143 7.75684 25.6286C8.32826 25.7572 8.94255 25.8143 9.58541 25.8143H22.1426C25.914 25.8143 28.4283 23.9286 28.4283 19.5286V12.1714C28.4283 11.5 28.3711 10.9 28.2568 10.3429C30.9711 10.9143 32.714 12.8286 32.714 16.4571Z" fill="#292D32"/>
<path d="M15.8574 19.6286C17.9403 19.6286 19.6288 17.94 19.6288 15.8571C19.6288 13.7742 17.9403 12.0857 15.8574 12.0857C13.7745 12.0857 12.0859 13.7742 12.0859 15.8571C12.0859 17.94 13.7745 19.6286 15.8574 19.6286Z" fill="#292D32"/>
<path d="M7.68569 12.6428C7.09997 12.6428 6.61426 13.1285 6.61426 13.7143V18C6.61426 18.5857 7.09997 19.0714 7.68569 19.0714C8.2714 19.0714 8.75711 18.5857 8.75711 18V13.7143C8.75711 13.1285 8.28569 12.6428 7.68569 12.6428Z" fill="#292D32"/>
<path d="M24.0138 12.6428C23.4281 12.6428 22.9424 13.1285 22.9424 13.7143V18C22.9424 18.5857 23.4281 19.0714 24.0138 19.0714C24.5995 19.0714 25.0852 18.5857 25.0852 18V13.7143C25.0852 13.1285 24.6138 12.6428 24.0138 12.6428Z" fill="#292D32"/>
</svg>
