<svg width="25" height="24" viewBox="0 0 25 24" fill="none" xmlns="http://www.w3.org/2000/svg">
<g clip-path="url(#clip0_719_29639)">
<g clip-path="url(#clip1_719_29639)">
<path d="M3.92039 0.959991L14.3154 11.28L17.1654 8.42999L4.56539 1.15499C4.35539 1.03311 4.13039 0.965617 3.92039 0.959991ZM3.05039 1.43999C2.95664 1.60687 2.90039 1.80374 2.90039 2.02499V22.08C2.90039 22.2412 2.93414 22.3856 2.99039 22.515L13.6254 11.955L3.05039 1.43999ZM18.0354 8.92499L14.9904 11.955L18.0354 14.97L21.7554 12.84C22.2841 12.5344 22.3591 12.1462 22.3554 11.94C22.3498 11.5987 22.1341 11.28 21.7704 11.085C21.4535 10.9144 19.1004 9.54374 18.0354 8.92499ZM14.3154 12.63L3.83039 23.025C4.00477 23.0156 4.19414 22.9781 4.37039 22.875C4.78102 22.6369 13.0854 17.835 13.0854 17.835L17.1804 15.48L14.3154 12.63Z" fill="white"/>
</g>
</g>
<defs>
<clipPath id="clip0_719_29639">
<rect width="24" height="24" fill="white" transform="translate(0.5)"/>
</clipPath>
<clipPath id="clip1_719_29639">
<rect width="24" height="24" fill="white" transform="translate(0.5)"/>
</clipPath>
</defs>
</svg>
