<svg width="36" height="36" viewBox="0 0 36 36" fill="none" xmlns="http://www.w3.org/2000/svg">
<path opacity="0.4" d="M24.127 5.74915C26.9097 4.82162 28.8009 5.2 29.79 6.19055C30.7799 7.18177 31.1575 9.07709 30.2373 11.8595L25.9375 24.7452V24.7462C25.2314 26.868 24.429 28.4038 23.6104 29.3947C22.79 30.3876 22.019 30.7607 21.3584 30.7609C20.6978 30.7609 19.9269 30.3875 19.1064 29.3947C18.3902 28.5277 17.6857 27.2435 17.0479 25.5148L16.7783 24.7462L15.5068 20.9181L15.3945 20.5782L15.0547 20.465L11.2256 19.1935C9.10724 18.4909 7.57462 17.6916 6.58594 16.8761C5.5951 16.0588 5.22302 15.2912 5.22363 14.6329C5.22425 13.974 5.59788 13.2034 6.5918 12.382C7.45935 11.665 8.7443 10.9601 10.4736 10.3195L11.2412 10.049L24.127 5.74915Z" fill="#1A1E42" stroke="#1A1E42" stroke-width="1.42857"/>
<mask id="path-2-inside-1_1930_17216" fill="white">
<path d="M18.1719 17.4715L23.6147 12.0144Z"/>
</mask>
<path d="M18.1719 17.4715L23.6147 12.0144Z" fill="#1A1E42"/>
<path d="M18.1719 17.4715L19.1834 18.4804L24.6262 13.0232L23.6147 12.0144L22.6033 11.0056L17.1604 16.4627L18.1719 17.4715Z" fill="#1A1E42" mask="url(#path-2-inside-1_1930_17216)"/>
<path d="M18.1704 18.5428C17.899 18.5428 17.6275 18.4428 17.4133 18.2286C16.999 17.8143 16.999 17.1286 17.4133 16.7143L22.8418 11.2571C23.2561 10.8428 23.9418 10.8428 24.3561 11.2571C24.7704 11.6714 24.7704 12.3571 24.3561 12.7714L18.9275 18.2286C18.7133 18.4286 18.4418 18.5428 18.1704 18.5428Z" fill="#292D32"/>
</svg>
