<svg width="24" height="24" viewBox="0 0 24 24" fill="none" xmlns="http://www.w3.org/2000/svg">
<path opacity="0.4" d="M15.6904 6.72998H21.2305C21.3341 6.73024 21.4199 6.81671 21.4199 6.92041C21.4197 7.03855 21.3293 7.11937 21.2305 7.11963H15.6904C15.5914 7.11963 15.5002 7.03874 15.5 6.92041C15.5 6.81655 15.5866 6.72998 15.6904 6.72998Z" fill="#1A1E42" stroke="#1A1E42"/>
<path opacity="0.4" d="M2.77051 6.73999H6.45996C6.56382 6.73999 6.65039 6.82656 6.65039 6.93042C6.65015 7.03409 6.56368 7.11987 6.45996 7.11987H2.77051C2.66679 7.11987 2.58032 7.03409 2.58008 6.93042C2.58008 6.82656 2.66665 6.73999 2.77051 6.73999Z" fill="#1A1E42" stroke="#1A1E42"/>
<path d="M10.1505 10.84C12.3154 10.84 14.0705 9.08496 14.0705 6.92C14.0705 4.75504 12.3154 3 10.1505 3C7.98551 3 6.23047 4.75504 6.23047 6.92C6.23047 9.08496 7.98551 10.84 10.1505 10.84Z" fill="#1A1E42"/>
<path opacity="0.4" d="M21.2296 17.77H17.5396C17.1596 17.77 16.8496 17.46 16.8496 17.08C16.8496 16.7 17.1596 16.39 17.5396 16.39H21.2296C21.6096 16.39 21.9196 16.7 21.9196 17.08C21.9196 17.46 21.6096 17.77 21.2296 17.77Z" fill="#1A1E42"/>
<path opacity="0.4" d="M8.31008 17.77H2.77008C2.39008 17.77 2.08008 17.46 2.08008 17.08C2.08008 16.7 2.39008 16.39 2.77008 16.39H8.31008C8.69008 16.39 9.00008 16.7 9.00008 17.08C9.00008 17.46 8.69008 17.77 8.31008 17.77Z" fill="#1A1E42"/>
<path d="M13.8497 21C16.0146 21 17.7697 19.245 17.7697 17.08C17.7697 14.9151 16.0146 13.16 13.8497 13.16C11.6847 13.16 9.92969 14.9151 9.92969 17.08C9.92969 19.245 11.6847 21 13.8497 21Z" fill="#1A1E42"/>
</svg>
