<svg width="36" height="36" viewBox="0 0 36 36" fill="none" xmlns="http://www.w3.org/2000/svg">
<path opacity="0.4" d="M13.5039 17.8401C14.6295 19.0573 16.243 19.7864 18 19.7864C19.745 19.7864 21.3392 19.0873 22.4688 17.8831C23.6745 19.0705 25.3074 19.7864 27.0146 19.7864C28.3528 19.7863 29.6169 19.4065 30.6719 18.7024V25.6858C30.6719 29.234 27.7914 32.1143 24.2432 32.1145H11.7568C8.2086 32.1144 5.32812 29.2341 5.32812 25.6858V18.7483C6.37397 19.419 7.61195 19.7863 8.91406 19.7864C10.6436 19.7864 12.2996 19.051 13.5039 17.8401Z" fill="#1A1E42" stroke="#1A1E42" stroke-width="1.42857"/>
<path d="M21.627 3.35669L22.6719 13.5911V13.8147C22.6594 14.4514 22.5213 15.0751 22.2998 15.6057C21.5582 17.2918 19.9218 18.3567 18 18.3567C16.1042 18.3565 14.4269 17.2608 13.7148 15.5911L13.7139 15.5891L13.6064 15.3176C13.3779 14.678 13.2884 13.9778 13.3535 13.2278L13.3545 13.2288L14.3467 3.35669H21.627Z" fill="#1A1E42" stroke="#1A1E42" stroke-width="1.42857"/>
<path opacity="0.6" d="M32.8001 12.6714L32.3858 8.71425C31.7858 4.39997 29.8287 2.64282 25.6429 2.64282H20.1572L21.2144 13.3571C21.2287 13.5 21.2429 13.6571 21.2429 13.9285C21.3287 14.6714 21.5572 15.3571 21.9001 15.9714C22.9287 17.8571 24.9287 19.0714 27.0144 19.0714C28.9144 19.0714 30.6287 18.2285 31.7001 16.7428C32.5572 15.6 32.9429 14.1571 32.8001 12.6714Z" fill="#292D32"/>
<path opacity="0.6" d="M10.2711 2.64282C6.07107 2.64282 4.12821 4.39997 3.51393 8.75711L3.12821 12.6857C2.98535 14.2143 3.39964 15.7 4.29964 16.8571C5.38535 18.2714 7.05678 19.0714 8.91393 19.0714C10.9996 19.0714 12.9996 17.8571 14.0139 16C14.3854 15.3571 14.6282 14.6143 14.6996 13.8428L15.8139 2.65711H10.2711V2.64282Z" fill="#292D32"/>
<path d="M17.0715 24.657C15.2572 24.8428 13.8857 26.3856 13.8857 28.2142V32.8285H22.1V28.7142C22.1143 25.7285 20.3572 24.3142 17.0715 24.657Z" fill="#292D32"/>
</svg>
