<svg width="22" height="18" viewBox="0 0 22 18" fill="none" xmlns="http://www.w3.org/2000/svg">
<path d="M21.2854 2.58709C20.5158 2.97189 19.7462 3.10016 18.8483 3.22842C19.7462 2.71536 20.3875 1.94575 20.6441 0.91962C19.8745 1.43269 18.9766 1.68922 17.9505 1.94576C17.1809 1.17615 16.0265 0.663086 14.8721 0.663086C12.1785 0.663086 10.1262 3.22842 10.7675 5.79376C7.30431 5.6655 4.2259 3.99803 2.04536 1.43269C0.890962 3.35669 1.5323 5.79376 3.32803 7.07643C2.6867 7.07643 2.04536 6.8199 1.40403 6.56336C1.40403 8.48737 2.81497 10.2831 4.73897 10.7962C4.09764 10.9244 3.4563 11.0527 2.81497 10.9244C3.32803 12.5919 4.86724 13.8746 6.79124 13.8746C5.25204 15.029 2.94323 15.6703 0.762695 15.4138C2.6867 16.5682 4.86724 17.3378 7.17604 17.3378C15.0003 17.3378 19.3614 10.7962 19.1049 4.76763C20.0027 4.25456 20.7723 3.48496 21.2854 2.58709Z" fill="white"/>
</svg>
